{"title":"Dragon Ball Super (Sub) Episode 053","uid":15457844,"size":266738015,"categoryP":"video","categoryS":"tv_shows","magnet":"?xt=urn:btih:ac00e847bcc7bcc56b2c78884c0f5e0968f54c18&amp;dn=Dragon+Ball+Super+%28Sub%29+Episode+053&amp;tr=udp%3A%2F%2Ftracker.leechers-paradise.org%3A6969&amp;tr=udp%3A%2F%2Fzer0day.ch%3A1337&amp;tr=udp%3A%2F%2Fopen.demonii.com%3A1337&amp;tr=udp%3A%2F%2Ftracker.coppersurfer.tk%3A6969&amp;tr=udp%3A%2F%2Fexodus.desync.com%3A6969","seeders":0,"leechers":2,"uploader":"f3n1Xx","files":1,"time":1470010190,"description":"Dragon Ball Super\r\nEpisode 53 - Burakku no shôtai o abake! Iza dai 10 uchû no Kaiôshin-kai e!\r\nDate aired : 31 Jul. 2016\r\nEnglish Subtitles\r\n\r\nGeneral\r\nComplete name                            : Dragon Ball Super (Sub) Episode 053\r\nFormat                                   : MPEG-4\r\nFormat profile                           : Base Media / Version 2\r\nCodec ID                                 : mp42\r\nFile size                                : 254 MiB\r\nDuration                                 : 23mn 31s\r\nOverall bit rate mode                    : Variable\r\nOverall bit rate                         : 1 512 Kbps\r\nEncoded date                             : UTC 2016-07-31 12:51:28\r\nTagged date                              : UTC 2016-07-31 12:51:28\r\ngsst                                     : 0\r\ngstd                                     : 1411168\r\n\r\nVideo\r\nID                                       : 1\r\nFormat                                   : AVC\r\nFormat/Info                              : Advanced Video Codec\r\nFormat profile                           :   \r\nFormat settings, CABAC                   : Yes\r\nFormat settings, ReFrames                : 1 frame\r\nCodec ID                                 : avc1\r\nCodec ID/Info                            : Advanced Video Coding\r\nDuration                                 : 23mn 31s\r\nBit rate                                 : 1 318 Kbps\r\nMaximum bit rate                         : 5 969 Kbps\r\nWidth                                    : 1 280 pixels\r\nHeight                                   : 720 pixels\r\nDisplay aspect ratio                     : 16:9\r\nFrame rate mode                          : Constant\r\nFrame rate                               : 23.976 fps\r\nColor space                              : YUV\r\nChroma subsampling                       : 4:2:0\r\nBit depth                                : 8 bits\r\nScan type                                : Progressive\r\nBits/(Pixel*Frame)                       : 0.060\r\nStream size                              : 222 MiB (87%)\r\nTagged date                              : UTC 2016-07-31 12:52:05\r\nColor primaries                          : BT.709\r\nTransfer characteristics                 : BT.709\r\nMatrix coefficients                      : BT.709\r\n\r\nAudio\r\nID                                       : 2\r\nFormat                                   : AAC\r\nFormat/Info                              : Advanced Audio Codec\r\nFormat profile                           : LC\r\nCodec ID                                 : 40\r\nDuration                                 : 23mn 31s\r\nBit rate mode                            : Variable\r\nBit rate                                 : 192 Kbps\r\nMaximum bit rate                         : 201 Kbps\r\nChannel(s)                               : 2 channels\r\nChannel positions                        : Front: L R\r\nSampling rate                            : 44.1 KHz\r\nCompression mode                         : Lossy\r\nStream size                              : 32.3 MiB (13%)\r\nTitle                                    : IsoMedia File Produced by Google, 5-11-2011\r\nEncoded date                             : UTC 2016-07-31 12:51:50\r\nTagged date                              : UTC 2016-07-31 12:52:05","torrent":{"xt":"urn:btih:ac00e847bcc7bcc56b2c78884c0f5e0968f54c18","amp;dn":"Dragon+Ball+Super+%28Sub%29+Episode+053","amp;tr":["udp%3A%2F%2Ftracker.leechers-paradise.org%3A6969","udp%3A%2F%2Fzer0day.ch%3A1337","udp%3A%2F%2Fopen.demonii.com%3A1337","udp%3A%2F%2Ftracker.coppersurfer.tk%3A6969","udp%3A%2F%2Fexodus.desync.com%3A6969"],"infoHash":"ac00e847bcc7bcc56b2c78884c0f5e0968f54c18","infoHashBuffer":{"type":"Buffer","data":[172,0,232,71,188,199,188,197,107,44,120,136,76,15,94,9,104,245,76,24]},"announce":[],"urlList":[]}}